<?xml version="1.0" encoding="utf-8"?>
<!-- Generator: Adobe Illustrator 15.1.0, SVG Export Plug-In . SVG Version: 6.00 Build 0)  -->
<!DOCTYPE svg PUBLIC "-//W3C//DTD SVG 1.1//EN" "http://www.w3.org/Graphics/SVG/1.1/DTD/svg11.dtd">
<svg version="1.1" id="レイヤー_1" xmlns="http://www.w3.org/2000/svg" xmlns:xlink="http://www.w3.org/1999/xlink" x="0px"
	 y="0px" width="100px" height="100px" viewBox="0 0 100 100" enable-background="new 0 0 100 100" xml:space="preserve">
<path fill="#F5BDD5" d="M48.315,100C27.754,100,9.53,87.658,1.888,68.559c-0.5-1.25-0.051-2.68,1.076-3.418
	c0.475-0.312,1.015-0.464,1.551-0.464c0.736,0,1.465,0.286,2.013,0.84c6.169,6.234,14.394,9.667,23.158,9.667
	c17.968,0,32.587-14.618,32.587-32.586S47.654,10.011,29.686,10.011c-0.311,0-0.62,0.011-0.929,0.022c0,0-0.263,0.009-0.295,0.009
	c-1.305,0-2.447-0.895-2.752-2.172c-0.313-1.309,0.339-2.657,1.56-3.225C33.901,1.563,40.981,0,48.315,0c27.571,0,50,22.43,50,50
	C98.315,77.57,75.886,100,48.315,100z"/>
</svg>
