<?xml version="1.0" encoding="utf-8"?>
<!-- Generator: Adobe Illustrator 15.1.0, SVG Export Plug-In . SVG Version: 6.00 Build 0)  -->
<!DOCTYPE svg PUBLIC "-//W3C//DTD SVG 1.1//EN" "http://www.w3.org/Graphics/SVG/1.1/DTD/svg11.dtd">
<svg version="1.1" id="レイヤー_1" xmlns="http://www.w3.org/2000/svg" xmlns:xlink="http://www.w3.org/1999/xlink" x="0px"
	 y="0px" width="100px" height="100px" viewBox="0 0 100 100" enable-background="new 0 0 100 100" xml:space="preserve">
<path fill="#C596C2" d="M92.725,33.934l-5.414-0.786l-5.413-0.787h-0.001l-14.281-2.076l-6.384-12.937
	c-0.001-0.001-0.002-0.003-0.003-0.004l-2.421-4.906l-2.424-4.91c-3.513-7.112-9.258-7.111-12.77,0.003l-2.422,4.907l-2.421,4.906
	c0,0,0,0,0,0.001l-6.386,12.939L18.105,32.36c0,0-0.001,0-0.002,0l-5.414,0.787l-5.416,0.787c-7.854,1.142-9.629,6.609-3.945,12.148
	l3.917,3.819l14.251,13.891l-2.439,14.222c0,0.002,0,0.002,0,0.002l-0.925,5.392l-0.924,5.395
	c-1.341,7.821,3.309,11.199,10.334,7.507l4.842-2.546L50,84.502l17.616,9.261l4.842,2.546c7.025,3.692,11.677,0.313,10.334-7.509
	l-0.924-5.393l-3.364-19.615l10.328-10.067c0.002-0.002,0.003-0.004,0.006-0.006l3.917-3.818l3.922-3.824
	C102.354,40.539,100.577,35.075,92.725,33.934z"/>
</svg>
